#!OML:ASF X:\für Bonn\!DataBase\2005_08_10_Bjorn_Final\c3d\bjorn.ASF
:FULLY-SPECIFIED
:DEGREES
91
root 1.31852 9.48215 3.92715 -185.663 -10.1162 -183.704
lowerback 33.7851 -0.250264 5.07847
upperback 14.8713 -3.46718 -0.396059
thorax -1.01386 -3.32817 -2.00696
lowerneck -21.4958 -2.10528 1.34965
upperneck -6.58534 -4.65921 1.91839
head 1.49759 -2.9571 0.0148408
rclavicle -4.77083e-015 -1.59028e-015
rhumerus 80.7914 -3.33098 -71.6206
rradius 7.19733
rwrist 46.8055
rhand -18.2257 13.4996
rfingers 7.12502
rthumb 8.05247 -16.327
lclavicle -4.77083e-015 -1.59028e-015
lhumerus 84.1302 -8.62218 56.8533
lradius 10.441
lwrist -39.4135
lhand -27.8334 -4.45668
lfingers 7.12502
lthumb -1.225 25.5195
rfemur -65.4362 -63.7971 -9.51506
rtibia 144.335
rfoot -49.2415 40.4788
rtoes -39.8459
lfemur -77.0899 20.2794 -25.3244
ltibia 143.586
lfoot -34.3633 -10.6915
ltoes -28.3328
92
root 1.31857 9.64229 3.93583 -185.191 -10.1309 -183.773
lowerback 33.3171 -0.284962 4.98306
upperback 14.7547 -3.46023 -0.462701
thorax -0.980715 -3.28652 -2.04546
lowerneck -21.5537 -2.11908 1.28732
upperneck -6.66319 -4.68215 1.98286
head 1.48344 -2.97416 0.0445991
rclavicle -9.93923e-015 -2.38542e-015
rhumerus 80.882 -3.34036 -71.5683
rradius 6.96917
rwrist 46.5262
rhand -18.3041 13.4314
rfingers 7.12502
rthumb 7.97681 -16.3981
lclavicle -9.93923e-015 -2.38542e-015
lhumerus 84.0316 -8.67407 56.9952
lradius 10.5483
lwrist -39.5638
lhand -27.2281 -4.65856
lfingers 7.12502
lthumb -0.640436 25.3202
rfemur -68.0692 -59.5892 -5.53048
rtibia 143.184
rfoot -47.009 38.6605
rtoes -39.9471
lfemur -76.8567 20.1707 -25.5616
ltibia 142.399
lfoot -34.0033 -10.7895
ltoes -28.3223
93
root 1.31834 9.8088 3.94311 -184.719 -10.1141 -183.839
lowerback 32.418 -0.267009 4.8283
upperback 14.8873 -3.44963 -0.424056
thorax -0.783029 -3.24362 -2.13227
lowerneck -21.6742 -2.13174 1.20715
upperneck -6.66267 -4.69598 2.04437
head 1.50741 -2.98211 0.0745025
rclavicle 1.19271e-015 -3.18055e-015
rhumerus 80.9847 -3.33861 -71.4912
rradius 6.82989
rwrist 46.3035
rhand -18.1734 13.2502
rfingers 7.12502
rthumb 8.10297 -16.5744
lclavicle 1.19271e-015 -3.18055e-015
lhumerus 83.9428 -8.68154 57.1895
lradius 10.6632
lwrist -39.76
lhand -26.6946 -4.86743
lfingers 7.12502
lthumb -0.125074 25.1123
rfemur -69.8135 -55.2887 -2.45609
rtibia 141.983
rfoot -45.0638 36.6113
rtoes -40.0888
lfemur -76.5793 17.8854 -25.7739
ltibia 141.173
lfoot -33.4394 -9.87621
ltoes -28.5655
94
root 1.31786 9.98034 3.94925 -184.27 -10.1177 -183.889
lowerback 31.9632 -0.307384 4.73757
upperback 14.7397 -3.44031 -0.473408
thorax -0.767077 -3.20128 -2.1507
lowerneck -21.7255 -2.13478 1.15673
upperneck -6.71152 -4.70256 2.05895
head 1.50059 -2.99034 0.0870316
rclavicle -2.98177e-014 1.11319e-014
rhumerus 81.0351 -3.32423 -71.4121
rradius 6.82734
rwrist 46.0739
rhand -17.8185 13.0431
rfingers 7.12502
rthumb 8.44552 -16.768
lclavicle -2.98177e-014 1.11319e-014
lhumerus 83.9353 -8.67217 57.1497
lradius 10.6958
lwrist -39.7312
lhand -26.288 -5.02656
lfingers 7.12502
lthumb 0.267568 24.953
rfemur -70.792 -51.1357 -0.132305
rtibia 140.728
rfoot -43.3362 34.5866
rtoes -40.1659
lfemur -76.2247 15.8477 -25.9318
ltibia 139.895
lfoot -32.9013 -9.08725
ltoes -28.6942
95
root 1.31695 10.1562 3.95386 -183.833 -10.1134 -183.935
lowerback 31.5063 -0.348635 4.67822
upperback 14.5783 -3.41808 -0.535395
thorax -0.764437 -3.14899 -2.20428
lowerneck -21.7377 -2.16029 1.10788
upperneck -6.72127 -4.72878 2.09511
head 1.50144 -3.00272 0.104947
rclavicle 8.74653e-015 1.82882e-014
rhumerus 81.0533 -3.32609 -71.3349
rradius 6.91053
rwrist 45.8454
rhand -17.3072 12.7314
rfingers 7.12502
rthumb 8.93894 -17.0592
lclavicle 8.74653e-015 1.82882e-014
lhumerus 83.9215 -8.69822 57.1671
lradius 10.6891
lwrist -39.8523
lhand -26.0177 -5.16633
lfingers 7.12502
lthumb 0.528685 24.8128
rfemur -71.3248 -47.1415 1.70545
rtibia 139.434
rfoot -41.8029 32.6244
rtoes -40.0627
lfemur -75.8286 14.1206 -26.0512
ltibia 138.58
lfoot -32.4267 -8.38137
ltoes -28.7492
96
root 1.31701 10.3336 3.95694 -183.443 -10.0966 -183.985
lowerback 31.0689 -0.379575 4.58978
upperback 14.4253 -3.39747 -0.584607
thorax -0.757029 -3.10283 -2.22597
lowerneck -21.7453 -2.17941 1.03193
upperneck -6.72216 -4.73886 2.13336
head 1.50527 -3.00571 0.129387
rclavicle -1.19271e-015 2.70347e-014
rhumerus 81.103 -3.30662 -71.2434
rradius 7.02096
rwrist 45.5918
rhand -16.6879 12.3989
rfingers 7.12502
rthumb 9.53647 -17.3653
lclavicle -1.19271e-015 2.70347e-014
lhumerus 83.9412 -8.70326 57.0062
lradius 10.6412
lwrist -39.7536
lhand -25.8897 -5.17678
lfingers 7.12502
lthumb 0.652302 24.802
rfemur -71.4563 -43.4888 3.12872
rtibia 138.119
rfoot -40.6921 30.5415
rtoes -40.2514
lfemur -75.3372 12.6645 -26.1257
ltibia 137.241
lfoot -32.0068 -7.81679
ltoes -28.783
97
root 1.31734 10.5126 3.95721 -183.094 -10.0896 -184.012
lowerback 30.6289 -0.410154 4.52353
upperback 14.2731 -3.37106 -0.625451
thorax -0.744872 -3.05364 -2.25294
lowerneck -21.6579 -2.20434 0.961778
upperneck -6.76478 -4.75231 2.15151
head 1.47798 -3.0111 0.148785
rclavicle -4.37326e-015 5.1684e-015
rhumerus 81.2204 -3.32872 -71.1342
rradius 7.00939
rwrist 45.3124
rhand -16.0837 12.1031
rfingers 7.12502
rthumb 10.1194 -17.6335
lclavicle -4.37326e-015 5.1684e-015
lhumerus 83.9577 -8.72412 56.8984
lradius 10.5651
lwrist -39.7478
lhand -25.857 -5.1671
lfingers 7.12502
lthumb 0.683905 24.8115
rfemur -71.3106 -40.155 4.31014
rtibia 136.777
rfoot -39.8519 28.4914
rtoes -40.4047
lfemur -74.7638 11.4531 -26.1539
ltibia 135.878
lfoot -31.6158 -7.36285
ltoes -28.6915
